<svg width="190" height="54" viewBox="0 0 190 54" fill="none" xmlns="http://www.w3.org/2000/svg">
<path d="M35.7389 29.4688C35.6517 30.5032 35.5143 31.5009 35.3266 32.4503C34.9697 32.3502 33.4633 31.9848 33.0645 31.903C33.2203 31.1105 33.3342 30.2896 33.4163 29.4688H35.7372H35.7389Z" fill="#BAD9D6"/>
<path d="M20.1003 37.928C19.5323 37.5475 18.9977 37.1188 18.4984 36.6566C18.8 36.5281 19.1033 36.4097 19.4133 36.3012C19.1569 35.6121 18.9324 34.888 18.7397 34.1222C18.113 34.3407 17.4996 34.591 16.9031 34.8747C15.4385 32.9359 14.5605 30.6134 14.3527 28.1741H17.9135C17.8951 27.8004 17.8951 26.2687 17.9135 25.895H14.3561C14.5353 23.8344 15.1889 21.8706 16.2697 20.1387C15.9899 20.0069 14.2321 19.0859 14.2321 19.0859C12.7859 21.4602 12.0118 24.1998 12.0118 27.0445C11.9347 33.6483 16.2496 39.6048 22.7798 41.7454C21.8699 40.9679 20.7438 39.2777 20.097 37.9296L20.1003 37.928Z" fill="#BAD9D6"/>
<path d="M34.9352 16.1378C35.5032 16.5182 36.0378 16.947 36.5372 17.4091C36.2355 17.5376 35.9322 17.6561 35.6222 17.7645C35.8786 18.4536 36.1031 19.1777 36.2959 19.9435C36.9226 19.725 37.5359 19.4747 38.1324 19.1911C39.597 21.1298 40.475 23.4523 40.6828 25.8916H22.8116C22.7412 26.3154 22.7546 27.787 22.8116 28.1708H40.6795C40.5002 30.2313 39.8466 32.1951 38.7658 33.927C39.0457 34.0588 40.8035 34.9798 40.8035 34.9798C42.2496 32.6056 43.0238 29.8659 43.0238 27.0212C43.1008 20.4174 38.7859 14.461 32.2558 12.3203C33.1657 13.0978 34.2917 14.788 34.9385 16.1361L34.9352 16.1378Z" fill="#BAD9D6"/>
<path d="M40.2484 35.8653C37.4735 39.8563 32.5671 42.4641 27.7159 42.4641C20.1234 42.4641 17.9919 28.5374 19.7396 21.4297C20.0463 21.5281 21.608 21.9035 22.0018 21.982C20.4468 28.4823 22.4643 39.3007 27.0691 40.1733C29.1503 40.567 30.7992 38.2695 31.5968 36.5827C32.366 36.7195 33.1234 36.8981 33.8724 37.1016C33.5423 37.8357 33.2038 38.4481 32.7514 39.1255C33.6982 38.7517 35.4576 37.7039 36.5468 36.6595C32.7045 35.0844 28.3494 34.6073 24.2406 35.1512C23.9758 34.4805 23.7362 33.743 23.5317 32.9538C29.1855 32.0612 35.2415 33.1807 40.2451 35.867H40.2501L40.2484 35.8653Z" fill="#BAD9D6"/>
<path d="M33.0781 22.1813C33.2356 22.9722 33.358 23.7831 33.4384 24.5989H35.7458C35.2113 18.8144 32.6609 11.6016 27.5198 11.6016C22.3788 11.6016 17.5679 14.2294 14.793 18.2204C19.7999 20.9333 25.8777 22.0228 31.5248 21.1369C31.3186 20.3477 31.0807 19.6052 30.8159 18.9345C26.7004 19.4767 22.3554 19.0062 18.5097 17.4295C19.5989 16.3851 20.9126 15.5592 22.2917 14.9585C21.8895 15.5508 21.5225 16.2165 21.1891 16.9373C21.1807 16.9507 21.1757 16.969 21.1707 16.9824C21.9297 17.1893 22.6788 17.3711 23.4596 17.5063C24.2522 15.8094 25.6029 13.9241 27.5249 13.8874C30.6065 13.829 32.4514 18.9061 33.0781 22.178V22.1813Z" fill="#BAD9D6"/>
<path d="M58.3044 17.3359L54.2207 29.1754L50.1555 17.3359H47.1309L52.4361 32.6425H55.9802L61.2838 17.3359H58.3044Z" fill="#BAD9D6"/>
<path d="M68.4251 22.137C67.5588 21.6498 66.5551 21.4062 65.4122 21.4062C64.2694 21.4062 63.264 21.6498 62.3994 22.137C61.5347 22.6242 60.8611 23.2983 60.3785 24.1592C59.8975 25.0202 59.6562 26.0212 59.6562 27.1591C59.6562 28.297 59.8975 29.2981 60.3785 30.159C60.8594 31.0216 61.533 31.6957 62.3994 32.1812C63.264 32.6684 64.2694 32.912 65.4122 32.912C66.5551 32.912 67.5605 32.6684 68.4251 32.1812C69.2898 31.694 69.9634 31.02 70.446 30.159C70.927 29.2981 71.1683 28.297 71.1683 27.1591C71.1683 26.0212 70.927 25.0202 70.446 24.1592C69.9634 23.2983 69.2915 22.6226 68.4251 22.137ZM67.3979 29.2614C66.8869 29.7936 66.225 30.0589 65.4122 30.0589C64.5995 30.0589 63.941 29.7886 63.4366 29.2497C62.9322 28.7108 62.6809 28.0067 62.6809 27.1374C62.6809 26.2682 62.9322 25.5674 63.4366 25.0368C63.941 24.5046 64.5995 24.2393 65.4122 24.2393C66.225 24.2393 66.8869 24.5096 67.3979 25.0485C67.909 25.5874 68.1654 26.2932 68.1654 27.1608C68.1654 28.0284 67.909 28.7308 67.3979 29.2614Z" fill="#BAD9D6"/>
<path d="M76.7282 18.8594H74.3353L74.1074 19.8254C73.8829 20.7748 73.0333 21.4438 72.0547 21.4438V24.1634H73.7706V29.1104C73.7706 30.4135 74.0974 31.3612 74.7526 31.9535C75.4077 32.5458 76.2992 32.8411 77.427 32.8411C77.7889 32.8411 78.1039 32.8178 78.3754 32.7744C78.6469 32.7294 78.9016 32.6626 79.1429 32.5725V29.8312C78.9921 29.8763 78.8195 29.918 78.6234 29.9547C78.4273 29.9931 78.2095 30.0114 77.9682 30.0114C77.6063 30.0114 77.3097 29.903 77.0767 29.6861C76.8438 29.4692 76.7265 29.1205 76.7265 28.6416V24.1668H80.0645V21.4472H76.7265V18.8627L76.7282 18.8594Z" fill="#BAD9D6"/>
<path d="M86.796 21.4141C86.3151 21.4141 85.851 21.5309 85.4086 21.7628C84.9645 21.9947 84.5741 22.2683 84.2356 22.5837C84.1401 22.6721 84.0546 22.7588 83.9725 22.8439L83.6826 21.4474H81.4707V32.6529H84.4283V25.1564C84.5758 25.0013 84.7366 24.8611 84.9243 24.7527C85.4505 24.4457 86.2029 24.2922 87.1815 24.2922H87.9037V21.6176C87.7981 21.5425 87.6473 21.4908 87.4529 21.4608C87.2569 21.4307 87.039 21.4157 86.7977 21.4157L86.796 21.4141Z" fill="#BAD9D6"/>
<path d="M114.541 24.6218C113.788 24.188 112.779 23.8209 111.516 23.5206C110.402 23.2503 109.654 22.955 109.271 22.633C108.887 22.311 108.694 21.9256 108.694 21.4751C108.694 20.9662 108.887 20.5691 109.271 20.2838C109.654 20.0001 110.207 19.8567 110.929 19.8567C111.486 19.8567 112.032 19.9734 112.567 20.2054C113.101 20.4373 113.579 20.8227 113.999 21.3633L116.347 19.7682C115.806 18.944 115.105 18.2883 114.247 17.8011C113.389 17.3139 112.329 17.0703 111.065 17.0703C109.966 17.0703 109.019 17.2655 108.222 17.6543C107.424 18.0447 106.811 18.5719 106.382 19.2393C105.953 19.9067 105.738 20.6825 105.738 21.5652C105.738 22.2993 105.881 22.97 106.167 23.5773C106.452 24.1847 106.946 24.7119 107.645 25.1624C108.346 25.6112 109.312 25.9866 110.546 26.2869C111.374 26.4671 112.005 26.669 112.443 26.8943C112.878 27.1195 113.183 27.3548 113.358 27.6017C113.53 27.8486 113.617 28.1456 113.617 28.4893C113.617 29.0282 113.421 29.4604 113.031 29.7824C112.639 30.1044 112.067 30.2662 111.315 30.2662C110.487 30.2662 109.758 30.071 109.125 29.6823C108.493 29.2935 107.943 28.7012 107.478 27.907L105.13 29.3235C105.55 30.1928 106.067 30.8969 106.677 31.4358C107.286 31.9747 107.975 32.3718 108.743 32.6271C109.51 32.8824 110.323 33.0092 111.181 33.0092C112.295 33.0092 113.26 32.8073 114.081 32.4019C114.901 31.9964 115.534 31.4508 115.978 30.7618C116.422 30.0727 116.644 29.2935 116.644 28.4242C116.644 27.555 116.481 26.8142 116.158 26.1985C115.834 25.5845 115.296 25.0606 114.544 24.6251L114.541 24.6218Z" fill="#BAD9D6"/>
<path d="M121.01 21.4531H118.053V32.6452H121.01V21.4531Z" fill="#BAD9D6"/>
<path d="M119.52 16.4141C118.979 16.4141 118.545 16.5826 118.221 16.9196C117.898 17.2566 117.735 17.6954 117.735 18.2344C117.735 18.7432 117.896 19.1637 118.221 19.4924C118.545 19.8227 118.977 19.9863 119.52 19.9863C120.063 19.9863 120.494 19.8211 120.819 19.4924C121.142 19.1637 121.305 18.7432 121.305 18.2344C121.305 17.6954 121.142 17.2566 120.819 16.9196C120.495 16.5826 120.063 16.4141 119.52 16.4141Z" fill="#BAD9D6"/>
<path d="M127.534 18.8594H125.141L124.913 19.8254C124.688 20.7748 123.839 21.4438 122.86 21.4438H122.376V24.1634H124.574V29.1104C124.574 30.4135 124.901 31.3612 125.556 31.9535C126.212 32.5458 127.103 32.8411 128.231 32.8411C128.593 32.8411 128.908 32.8178 129.179 32.7744C129.451 32.7294 129.705 32.6626 129.947 32.5725V29.8312C129.796 29.8763 129.623 29.918 129.427 29.9547C129.231 29.9931 129.013 30.0114 128.772 30.0114C128.41 30.0114 128.114 29.903 127.881 29.6861C127.648 29.4692 127.53 29.1205 127.53 28.6416V24.1668H129.945V21.4472H127.53V18.8627L127.534 18.8594Z" fill="#BAD9D6"/>
<path d="M155.571 18.0217C154.744 17.5645 153.765 17.3359 152.637 17.3359H147.107V32.6425H150.065V28.1927H152.639C153.752 28.1927 154.727 27.9674 155.561 27.5186C156.396 27.0698 157.048 26.4358 157.513 25.6199C157.979 24.804 158.214 23.8546 158.214 22.7768C158.214 21.699 157.981 20.7313 157.513 19.9221C157.046 19.1129 156.399 18.4805 155.571 18.0233V18.0217ZM154.42 24.6855C153.909 25.1344 153.215 25.3596 152.344 25.3596H150.065V20.1456H152.367C153.24 20.1456 153.929 20.3675 154.434 20.808C154.938 21.2502 155.189 21.9059 155.189 22.7751C155.189 23.6444 154.933 24.2367 154.422 24.6855H154.42Z" fill="#BAD9D6"/>
<path d="M164.903 21.4062C164.423 21.4062 163.958 21.523 163.516 21.755C163.072 21.9869 162.682 22.2605 162.343 22.5758C162.248 22.6643 162.162 22.751 162.08 22.8361L161.79 21.4396H159.578V32.6451H162.536V25.1486C162.683 24.9935 162.844 24.8533 163.032 24.7449C163.558 24.4379 164.31 24.2844 165.289 24.2844H166.011V21.6098C165.906 21.5347 165.755 21.483 165.56 21.453C165.364 21.4229 165.146 21.4079 164.905 21.4079L164.903 21.4062Z" fill="#BAD9D6"/>
<path d="M177.64 24.1592C177.158 23.2983 176.486 22.6226 175.619 22.137C174.753 21.6498 173.749 21.4062 172.607 21.4062C171.464 21.4062 170.458 21.6498 169.594 22.137C168.729 22.6242 168.055 23.2983 167.573 24.1592C167.092 25.0202 166.851 26.0212 166.851 27.1591C166.851 28.297 167.092 29.2981 167.573 30.159C168.054 31.0216 168.727 31.6957 169.594 32.1812C170.458 32.6684 171.464 32.912 172.607 32.912C173.749 32.912 174.755 32.6684 175.619 32.1812C176.484 31.694 177.158 31.02 177.64 30.159C178.121 29.2981 178.363 28.297 178.363 27.1591C178.363 26.0212 178.121 25.0202 177.64 24.1592ZM174.592 29.2614C174.081 29.7936 173.419 30.0589 172.607 30.0589C171.794 30.0589 171.135 29.7886 170.631 29.2497C170.127 28.7108 169.875 28.0067 169.875 27.1374C169.875 26.2682 170.127 25.5674 170.631 25.0368C171.135 24.5046 171.794 24.2393 172.607 24.2393C173.419 24.2393 174.081 24.5096 174.592 25.0485C175.103 25.5874 175.36 26.2932 175.36 27.1608C175.36 28.0284 175.103 28.7308 174.592 29.2614Z" fill="#BAD9D6"/>
<path d="M136.374 21.4235C133.328 21.4235 130.859 23.5458 130.859 27.1447C130.859 30.7436 133.329 32.8726 136.374 32.8726C138.609 32.8726 140.535 31.9666 141.399 29.9761L139.41 28.8566C138.164 31.0873 134.216 31.441 133.683 28.1592H141.852C142.278 23.2372 139.087 21.4219 136.374 21.4219V21.4235ZM133.737 25.9C134.092 24.4101 135.216 23.731 136.391 23.731C137.735 23.731 138.74 24.6687 139.032 25.9H133.738H133.737Z" fill="#BAD9D6"/>
<path d="M94.3536 21.4235C91.3072 21.4235 88.8389 23.5458 88.8389 27.1447C88.8389 30.7436 91.3088 32.8726 94.3536 32.8726C96.5889 32.8726 98.5143 31.9666 99.379 29.9761L97.3899 28.8566C96.1432 31.0873 92.1953 31.441 91.6624 28.1592H99.8314C100.257 23.2372 97.0665 21.4219 94.3536 21.4219V21.4235ZM91.716 25.9C92.0713 24.4101 93.1957 23.731 94.3703 23.731C95.7142 23.731 96.7196 24.6687 97.0112 25.9H91.7177H91.716Z" fill="#BAD9D6"/>
</svg>
